<svg width="150" height="53" viewBox="0 0 150 53" fill="none" xmlns="http://www.w3.org/2000/svg">
<g clip-path="url(#clip0_396_240)">
<path d="M15.7378 41.2215C15.2022 40.5923 14.212 40.4805 13.5262 40.9719C12.8403 41.4632 12.7184 42.3715 13.254 43.0008L15.7378 41.2215ZM147.899 10.793L133.22 20.6539L149.868 27.3856L147.899 10.793ZM13.254 43.0008C14.1879 44.098 15.3038 44.7966 16.5894 45.1082C17.8415 45.4118 19.1159 45.3143 20.3266 45.0533C21.5333 44.7933 22.778 44.3474 24.0043 43.8654C25.3167 43.3496 26.4446 42.8616 27.8181 42.3345C30.4438 41.3269 33.1244 40.5244 35.919 40.573C38.6545 40.6206 41.6381 41.4879 44.8688 44.0685L46.9381 41.8884C43.1891 38.8936 39.5053 37.7439 35.9786 37.6825C32.5112 37.6223 29.3349 38.6187 26.602 39.6676C25.2963 40.1686 23.8696 40.7732 22.7633 41.208C21.5713 41.6765 20.5337 42.0391 19.6058 42.2391C18.6819 42.4382 17.9696 42.4527 17.3944 42.3133C16.8526 42.1819 16.3007 41.883 15.7378 41.2215L13.254 43.0008ZM44.8688 44.0685C48.8509 47.2496 53.4736 48.1171 58.1362 47.5067C62.7417 46.9037 67.3883 44.8648 71.633 42.2468C80.103 37.0224 87.4379 29.1965 90.2471 24.497L87.4841 23.1071C84.936 27.3694 77.9608 34.8602 69.8746 39.8478C65.8412 42.3355 61.6484 44.1265 57.6908 44.6447C53.7904 45.1555 50.127 44.4356 46.9381 41.8884L44.8688 44.0685ZM90.2471 24.497C92.7591 20.295 96.5385 17.418 101.143 16.8131C105.747 16.2081 111.6 17.82 118.378 23.4297L120.489 21.2833C113.295 15.3294 106.543 13.1832 100.696 13.9514C94.8484 14.7197 90.3293 18.3474 87.4841 23.1071L90.2471 24.497ZM118.378 23.4297C123.294 27.499 128.087 29.1134 132.486 28.854C136.868 28.5956 140.567 26.4954 143.35 23.6652L141.01 21.7289C138.621 24.1586 135.638 25.7712 132.284 25.9689C128.949 26.1657 124.955 24.98 120.489 21.2833L118.378 23.4297Z" fill="#FD0E0E"/>
<path d="M40.319 25.5372V32.8393C39.4763 33.201 38.4904 33.4971 37.361 33.7274C36.2316 33.9411 35.0572 34.0481 33.8383 34.0481C31.669 34.0481 29.8316 33.6534 28.3257 32.8639C26.8377 32.0582 25.7173 30.9974 24.9643 29.6816C24.2293 28.3495 23.8618 26.894 23.8618 25.3152C23.8618 23.7528 24.2471 22.3139 25.0181 20.9981C25.8068 19.6824 26.9721 18.6299 28.5139 17.8405C30.0555 17.0511 31.92 16.6564 34.1072 16.6564C35.2007 16.6564 36.2316 16.7797 37.1996 17.0264C38.1677 17.2566 39.0101 17.5855 39.7274 18.0132L38.7324 20.7268C37.3879 19.9044 35.8461 19.4933 34.1072 19.4933C32.8522 19.4933 31.7677 19.7564 30.8534 20.2827C29.957 20.7925 29.2757 21.4915 28.8097 22.3796C28.3435 23.2513 28.1106 24.2381 28.1106 25.3399C28.1106 27.0667 28.6034 28.4811 29.5895 29.583C30.5933 30.6684 32.0097 31.2111 33.8383 31.2111C34.5732 31.2111 35.362 31.1535 36.2047 31.0384V25.5372H40.319ZM53.2486 23.2183C52.3343 23.2183 51.4916 23.2841 50.7208 23.4157C49.9679 23.5473 49.1253 23.8104 48.1931 24.2051V33.7274H44.0788V19.9127H47.1444L47.7898 21.5902C48.7219 20.8665 49.6183 20.3567 50.4788 20.0607C51.3572 19.7647 52.2805 19.6166 53.2486 19.6166V23.2183ZM58.4656 17.4951C57.8022 17.4951 57.2374 17.2813 56.7715 16.8537C56.3053 16.4261 56.0723 15.9081 56.0723 15.2996C56.0723 14.6911 56.3053 14.173 56.7715 13.7454C57.2374 13.3178 57.8022 13.104 58.4656 13.104C59.1288 13.104 59.6935 13.3178 60.1597 13.7454C60.6437 14.173 60.8858 14.6911 60.8858 15.2996C60.8858 15.9081 60.6437 16.4261 60.1597 16.8537C59.6935 17.2813 59.1288 17.4951 58.4656 17.4951ZM56.4219 19.9127H60.5362V33.7274H56.4219V19.9127ZM72.9906 19.592C74.3351 19.592 75.5272 19.8633 76.5671 20.4061C77.6068 20.9488 78.4135 21.7546 78.9872 22.8236C79.5788 23.8927 79.8746 25.1919 79.8746 26.7213C79.8746 28.3825 79.5429 29.7639 78.8797 30.8657C78.2162 31.9512 77.3379 32.757 76.2444 33.2833C75.1507 33.7931 73.9318 34.0481 72.5872 34.0481C71.1351 34.0481 69.7994 33.6451 68.5805 32.8393L68.1503 33.7274H65.1923V13.9921H69.3066V20.5294C70.436 19.9044 71.6639 19.592 72.9906 19.592ZM72.1032 31.3098C73.3402 31.3098 74.2454 30.9315 74.8192 30.175C75.4108 29.402 75.7066 28.2508 75.7066 26.7213C75.7066 25.1425 75.4108 24.016 74.8192 23.3417C74.2276 22.6673 73.4656 22.3302 72.5335 22.3302C71.9059 22.3302 71.3322 22.4043 70.8124 22.5523C70.3103 22.6839 69.8085 22.8976 69.3066 23.1937V30.5944C70.1849 31.0714 71.1171 31.3098 72.1032 31.3098Z" fill="white"/>
<path d="M102.371 33.2307H97.0732V47.2181H92.8245V33.2307H87.5808V30.4431H102.371V33.2307ZM114.514 36.7091C113.6 36.7091 112.757 36.7748 111.986 36.9064C111.234 37.038 110.391 37.3011 109.459 37.6958V47.2181H105.344V33.4034H108.41L109.055 35.0809C109.988 34.3572 110.884 33.8474 111.744 33.5514C112.623 33.2554 113.546 33.1074 114.514 33.1074V36.7091ZM119.731 30.9858C119.068 30.9858 118.503 30.7721 118.037 30.3444C117.571 29.9168 117.338 29.3987 117.338 28.7903C117.338 28.1818 117.571 27.6638 118.037 27.2361C118.503 26.8085 119.068 26.5947 119.731 26.5947C120.394 26.5947 120.959 26.8085 121.425 27.2361C121.909 27.6638 122.151 28.1818 122.151 28.7903C122.151 29.3987 121.909 29.9168 121.425 30.3444C120.959 30.7721 120.394 30.9858 119.731 30.9858ZM117.688 33.4034H121.802V47.2181H117.688V33.4034ZM134.256 33.0827C135.601 33.0827 136.793 33.3704 137.833 33.9461C138.872 34.5052 139.679 35.3359 140.253 36.4377C140.844 37.5231 141.14 38.8223 141.14 40.3354C141.14 42.8023 140.369 44.6195 138.828 45.7873C137.304 46.955 135.278 47.5388 132.75 47.5388C131.89 47.5388 131.164 47.4648 130.572 47.3168V52.966H126.458V33.4034H129.523L129.927 34.4395C131.218 33.535 132.661 33.0827 134.256 33.0827ZM132.481 44.8252C135.493 44.8252 136.999 43.2957 136.999 40.2367C136.999 38.6415 136.694 37.5068 136.085 36.8324C135.493 36.158 134.731 35.821 133.799 35.821C133.154 35.821 132.58 35.895 132.078 36.043C131.576 36.1746 131.074 36.3966 130.572 36.7091V44.6032C131.253 44.7512 131.89 44.8252 132.481 44.8252Z" fill="#0ED4DA"/>
<path d="M15.0992 41.916C14.9188 42.4641 14.073 42.4641 13.8925 41.916L5.46239 16.3078C5.3402 15.9366 5.64306 15.5625 6.06573 15.5625H22.9259C23.3486 15.5625 23.6515 15.9367 23.5293 16.3078L15.0992 41.916Z" fill="white"/>
<path d="M28.942 13.8943C28.942 18.2237 30.6193 17.1162 14.4738 17.1162C-0.728195 17.1162 0.00568961 18.6265 0.00568963 13.8943C0.00568963 6.2207 6.4833 0 14.4738 0C22.4643 0 28.942 6.2207 28.942 13.8943Z" fill="#FD0E0E"/>
<path d="M14.4958 15.2255C17.8605 15.2255 20.5882 12.7232 20.5882 9.63645C20.5882 6.54968 17.8605 4.04736 14.4958 4.04736C11.131 4.04736 8.40332 6.54968 8.40332 9.63645C8.40332 12.7232 11.131 15.2255 14.4958 15.2255Z" fill="white"/>
</g>
<defs>
<clipPath id="clip0_396_240">
<rect width="150" height="53" fill="white"/>
</clipPath>
</defs>
</svg>
